<svg width="299" height="215" viewBox="0 0 299 215" fill="none" xmlns="http://www.w3.org/2000/svg">
<path d="M0.290001 94.2C6.49667 93.9467 11.0567 92.6167 13.97 90.21C16.8833 87.6767 18.34 84.13 18.34 79.57C18.34 76.15 17.7067 69.3733 16.44 59.24C16.3133 58.2267 15.9333 54.9967 15.3 49.55C14.6667 43.9767 14.35 38.9733 14.35 34.54C14.35 23.7733 17.6433 15.4133 24.23 9.45999C30.8167 3.37999 39.62 0.339993 50.64 0.339993H64.32V26.94H56.91C52.8567 26.94 49.9433 27.8267 48.17 29.6C46.3967 31.3733 45.51 34.0967 45.51 37.77C45.51 40.5567 46.0167 46.89 47.03 56.77C48.17 69.0567 48.74 77.1 48.74 80.9C48.74 87.8667 47.03 93.63 43.61 98.19C40.3167 102.75 35.25 105.663 28.41 106.93V107.31C35.25 108.703 40.3167 111.68 43.61 116.24C47.03 120.673 48.74 126.437 48.74 133.53C48.74 137.33 48.17 145.373 47.03 157.66C46.0167 167.287 45.51 173.557 45.51 176.47C45.51 180.143 46.3967 182.867 48.17 184.64C49.9433 186.54 52.8567 187.49 56.91 187.49H64.32V214.09H50.64C39.62 214.09 30.8167 211.05 24.23 204.97C17.6433 199.017 14.35 190.593 14.35 179.7C14.35 175.267 14.6667 170.327 15.3 164.88C15.9333 159.307 16.3133 156.013 16.44 155C17.7067 144.867 18.34 138.09 18.34 134.67C18.34 130.363 16.8833 126.943 13.97 124.41C11.0567 121.75 6.49667 120.293 0.290001 120.04V94.2ZM208.914 174H176.424L122.084 91.73V174H89.5945V40.62H122.084L176.424 123.27V40.62H208.914V174ZM298.206 120.04C291.999 120.293 287.439 121.75 284.526 124.41C281.612 126.943 280.156 130.363 280.156 134.67C280.156 138.09 280.789 144.867 282.056 155C282.182 156.013 282.562 159.307 283.196 164.88C283.829 170.327 284.146 175.267 284.146 179.7C284.146 190.593 280.852 199.017 274.266 204.97C267.679 211.05 258.876 214.09 247.856 214.09H234.176V187.49H241.586C245.639 187.49 248.552 186.54 250.326 184.64C252.099 182.867 252.986 180.143 252.986 176.47C252.986 173.557 252.479 167.287 251.466 157.66C250.326 145.373 249.756 137.33 249.756 133.53C249.756 126.437 251.402 120.673 254.696 116.24C258.116 111.68 263.246 108.703 270.086 107.31V106.93C263.246 105.663 258.116 102.75 254.696 98.19C251.402 93.63 249.756 87.8667 249.756 80.9C249.756 77.1 250.326 69.0567 251.466 56.77C252.479 46.89 252.986 40.5567 252.986 37.77C252.986 34.0967 252.099 31.3733 250.326 29.6C248.552 27.8267 245.639 26.94 241.586 26.94H234.176V0.339993H247.856C258.876 0.339993 267.679 3.37999 274.266 9.45999C280.852 15.4133 284.146 23.7733 284.146 34.54C284.146 38.9733 283.829 43.9767 283.196 49.55C282.562 54.9967 282.182 58.2267 282.056 59.24C280.789 69.3733 280.156 76.15 280.156 79.57C280.156 84.13 281.612 87.6767 284.526 90.21C287.439 92.6167 291.999 93.9467 298.206 94.2V120.04Z" fill="white"/>
</svg>
