<svg width="14" height="14" viewBox="0 0 14 14" fill="none" xmlns="http://www.w3.org/2000/svg">
<g clip-path="url(#clip0_1_2)">
<rect width="14" height="14" rx="3" fill="black"/>
<path d="M5.12305 10.0146C4.77474 10.0146 4.60059 9.9235 4.60059 9.74121V4.18457C4.60059 4.09017 4.6429 4.02018 4.72754 3.97461C4.81217 3.92578 4.94401 3.90137 5.12305 3.90137H5.49414C5.63411 3.90137 5.74967 3.91764 5.84082 3.9502C5.93197 3.98275 6.00684 4.04622 6.06543 4.14062L8.11621 7.2998L8.35059 7.65137V4.18457C8.35059 4.09017 8.3929 4.02018 8.47754 3.97461C8.56217 3.92578 8.69401 3.90137 8.87305 3.90137H9.12207C9.30111 3.90137 9.43132 3.92578 9.5127 3.97461C9.59733 4.02018 9.63965 4.09017 9.63965 4.18457V9.74121C9.63965 9.9235 9.46712 10.0146 9.12207 10.0146H8.79004C8.64681 10.0146 8.53125 10 8.44336 9.9707C8.35547 9.93815 8.28223 9.8763 8.22363 9.78516L6.0752 6.49902L5.88965 6.22559V9.74121C5.88965 9.9235 5.71712 10.0146 5.37207 10.0146H5.12305Z" fill="white"/>
</g>
<defs>
<clipPath id="clip0_1_2">
<rect width="14" height="14" rx="3" fill="white"/>
</clipPath>
</defs>
</svg>
