<svg width="300" height="250" viewBox="0 0 300 250" fill="none" xmlns="http://www.w3.org/2000/svg">
<rect width="300" height="250" fill="#1E1E1E"/>
<rect width="300" height="250" rx="2" fill="black"/>
<path d="M47.728 115.984C51.9947 115.899 55.024 115.131 56.816 113.68C58.6933 112.229 59.632 110.053 59.632 107.152C59.632 105.104 59.2053 101.008 58.352 94.864C57.9253 92.2187 57.5413 89.488 57.2 86.672C56.8587 83.7707 56.688 81.2107 56.688 78.992C56.688 71.1413 59.0773 65.04 63.856 60.688C68.72 56.336 75.248 54.16 83.44 54.16H92.912V74.512H88.304C85.5733 74.512 83.6107 75.1093 82.416 76.304C81.2213 77.4987 80.624 79.2907 80.624 81.68C80.624 83.3013 80.9653 87.0987 81.648 93.072C82.416 100.752 82.8 105.744 82.8 108.048C82.8 112.912 81.648 116.923 79.344 120.08C77.1253 123.237 73.712 125.243 69.104 126.096V126.352C73.712 127.205 77.1253 129.211 79.344 132.368C81.648 135.525 82.8 139.536 82.8 144.4C82.8 146.704 82.416 151.696 81.648 159.376C80.9653 165.349 80.624 169.189 80.624 170.896C80.624 173.2 81.2213 174.949 82.416 176.144C83.6107 177.339 85.5733 177.936 88.304 177.936H92.912V198.288H83.44C75.248 198.288 68.72 196.112 63.856 191.76C59.0773 187.408 56.688 181.307 56.688 173.456C56.688 171.237 56.8587 168.72 57.2 165.904C57.5413 163.003 57.9253 160.229 58.352 157.584C59.2053 151.44 59.632 147.387 59.632 145.424C59.632 139.621 55.664 136.592 47.728 136.336V115.984ZM191.752 170H166.664L133.256 119.568V170H108.168V79.76H133.256L166.664 130.832V79.76H191.752V170ZM252.123 136.336C244.187 136.592 240.219 139.621 240.219 145.424C240.219 147.387 240.646 151.44 241.499 157.584C241.926 160.229 242.31 163.003 242.651 165.904C242.992 168.72 243.163 171.237 243.163 173.456C243.163 181.307 240.731 187.408 235.867 191.76C231.088 196.112 224.603 198.288 216.411 198.288H206.939V177.936H211.547C214.278 177.936 216.24 177.339 217.435 176.144C218.63 174.949 219.227 173.2 219.227 170.896C219.227 169.189 218.886 165.349 218.203 159.376C217.435 151.696 217.051 146.704 217.051 144.4C217.051 139.536 218.16 135.525 220.379 132.368C222.683 129.211 226.139 127.205 230.747 126.352V126.096C226.139 125.243 222.683 123.237 220.379 120.08C218.16 116.923 217.051 112.912 217.051 108.048C217.051 105.744 217.435 100.752 218.203 93.072C218.886 87.0987 219.227 83.3013 219.227 81.68C219.227 79.2907 218.63 77.4987 217.435 76.304C216.24 75.1093 214.278 74.512 211.547 74.512H206.939V54.16H216.411C224.603 54.16 231.088 56.336 235.867 60.688C240.731 65.04 243.163 71.1413 243.163 78.992C243.163 81.2107 242.992 83.7707 242.651 86.672C242.31 89.488 241.926 92.2187 241.499 94.864C240.646 101.008 240.219 105.104 240.219 107.152C240.219 110.053 241.115 112.229 242.907 113.68C244.784 115.131 247.856 115.899 252.123 115.984V136.336Z" fill="white"/>
</svg>
